<svg xmlns="http://www.w3.org/2000/svg" viewBox="0 0 500 500"><g id="freepik--background-simple--inject-4"><path d="M387.45,86.17S330.6,36,242.48,34.05s-128.86,47.38-126,95.7S38.76,203.66,34,253.88,61.5,363.79,110.78,374.22s47.37,25.58,93.8,52.11S305,469,345.76,450,396,397,436.73,361.9s53.06-126,28.42-182.87S387.45,86.17,387.45,86.17Z" style="fill:#4DFF70"></path><path d="M387.45,86.17S330.6,36,242.48,34.05s-128.86,47.38-126,95.7S38.76,203.66,34,253.88,61.5,363.79,110.78,374.22s47.37,25.58,93.8,52.11S305,469,345.76,450,396,397,436.73,361.9s53.06-126,28.42-182.87S387.45,86.17,387.45,86.17Z" style="fill:#fff;opacity:0.7000000000000001"></path></g><g id="freepik--Device--inject-4"><path d="M193.67,60.07H140.85l0,.19c-1.56,5.63-5.16,9.28-9.15,9.28h-2.29c-4,0-7.59-3.65-9.15-9.28l0-.19H67.34A26.63,26.63,0,0,0,40.71,86.7v322A15.29,15.29,0,0,0,56,424H205a15.29,15.29,0,0,0,15.28-15.29V86.7A26.63,26.63,0,0,0,193.67,60.07Z" style="fill:#fff;stroke:#263238;stroke-linecap:round;stroke-linejoin:round"></path><path d="M220.3,219V86.7a26.63,26.63,0,0,0-26.63-26.63H140.85l0,.19c-1.56,5.63-5.16,9.28-9.15,9.28h-2.29c-4,0-7.59-3.65-9.15-9.28l0-.19H67.34A26.63,26.63,0,0,0,40.71,86.7V219Z" style="fill:#4DFF70;stroke:#263238;stroke-linecap:round;stroke-linejoin:round"></path><circle cx="68" cy="142" r="12" style="fill:#fff;stroke:#263238;stroke-linecap:round;stroke-linejoin:round"></circle><polygon points="220.3 141.99 204 132 159 174 120 155 40.71 219 220.3 219 220.3 141.99" style="fill:#fff;stroke:#263238;stroke-linecap:round;stroke-linejoin:round"></polygon><path d="M220.3,108.62V86.7a26.63,26.63,0,0,0-26.63-26.63H140.85l0,.19c-1.56,5.63-5.16,9.28-9.15,9.28h-2.29c-4,0-7.59-3.65-9.15-9.28l0-.19H67.34A26.63,26.63,0,0,0,40.71,86.7v21.92Z" style="fill:#c2c2c2;stroke:#263238;stroke-linecap:round;stroke-linejoin:round"></path><path d="M220.3,94.46V86.7a26.63,26.63,0,0,0-26.63-26.63H140.85l0,.19c-1.56,5.63-5.16,9.28-9.15,9.28h-2.29c-4,0-7.59-3.65-9.15-9.28l0-.19H67.34A26.63,26.63,0,0,0,40.71,86.7v7.76Z" style="fill:#fff;stroke:#263238;stroke-linecap:round;stroke-linejoin:round"></path><path d="M231.73,157.58V123.82h-3V80.61A26.64,26.64,0,0,0,202,54H59A26.63,26.63,0,0,0,32.34,80.61V412.7A26.63,26.63,0,0,0,59,439.33H202a26.64,26.64,0,0,0,26.64-26.63V186.34h3V166.4h-3v-8.82ZM220.3,393.67a26.64,26.64,0,0,1-26.63,26.64H67.34a26.64,26.64,0,0,1-26.63-26.64V86.7A26.63,26.63,0,0,1,67.34,60.07h52.82l0,.19c1.56,5.63,5.16,9.28,9.15,9.28h2.29c4,0,7.59-3.65,9.15-9.28l0-.19h52.82A26.63,26.63,0,0,1,220.3,86.7Z" style="fill:#4DFF70;stroke:#263238;stroke-linecap:round;stroke-linejoin:round"></path><path d="M197.37,57.65H63.64A28.21,28.21,0,0,0,35.42,85.87V407.45a28.22,28.22,0,0,0,28.22,28.22H197.37a28.22,28.22,0,0,0,28.22-28.22V85.87A28.21,28.21,0,0,0,197.37,57.65Zm22.93,336a26.64,26.64,0,0,1-26.63,26.64H67.34a26.64,26.64,0,0,1-26.63-26.64V86.7A26.63,26.63,0,0,1,67.34,60.07h52.82l0,.19c1.56,5.63,5.16,9.28,9.15,9.28h2.29c4,0,7.59-3.65,9.15-9.28l0-.19h52.82A26.63,26.63,0,0,1,220.3,86.7Z" style="fill:#263238;stroke:#263238;stroke-linecap:round;stroke-linejoin:round"></path><path d="M132.46,61.34a2.5,2.5,0,1,0-2.5,2.5A2.5,2.5,0,0,0,132.46,61.34Z" style="fill:#707070"></path><path d="M56.67,70.93c0,2.53-2.84,3.44-2.86,5.37v.13h2.76v.85H52.89v-.72c0-2.71,2.84-3.24,2.84-5.6,0-.86-.29-1.32-1-1.32s-1,.49-1,1.24v.74h-.88v-.68c0-1.29.59-2.14,1.88-2.14S56.67,69.64,56.67,70.93Z" style="fill:#263238"></path><path d="M61.26,70.91v.22a1.68,1.68,0,0,1-1,1.73,1.66,1.66,0,0,1,1,1.73v.65c0,1.28-.6,2.12-1.89,2.12s-1.89-.84-1.89-2.12v-.57h.88v.63c0,.76.31,1.21,1,1.21s1-.44,1-1.29v-.65c0-.83-.35-1.22-1.06-1.25h-.5v-.84h.55a1,1,0,0,0,1-1.15V71c0-.86-.3-1.31-1-1.31s-1,.47-1,1.23v.43h-.88v-.39c0-1.28.6-2.11,1.89-2.11S61.26,69.63,61.26,70.91Z" style="fill:#263238"></path><path d="M63.07,71.55v1.16h-.9V71.55Zm0,4.57v1.16h-.9V76.12Z" style="fill:#263238"></path><path d="M65,72.3a1.35,1.35,0,0,1,1.24-.69c1.08,0,1.56.79,1.56,2v1.64c0,1.28-.61,2.12-1.89,2.12S64,76.52,64,75.24v-.56h.87v.62c0,.76.31,1.21,1,1.21s1-.45,1-1.21V73.67c0-.75-.31-1.21-1-1.21a.9.9,0,0,0-.94.9v.19H64l.23-4.66h3.31v.84H65.1Z" style="fill:#263238"></path><path d="M72.44,70.9v.16h-.88v-.22c0-.75-.31-1.2-1-1.2s-1,.46-1,1.36v1.88A1.34,1.34,0,0,1,70.9,72c1.08,0,1.56.78,1.56,2v1.27c0,1.28-.63,2.12-1.92,2.12s-1.93-.84-1.93-2.12V71c0-1.33.6-2.16,1.93-2.16S72.44,69.62,72.44,70.9ZM69.55,74V75.3c0,.76.31,1.21,1,1.21s1-.45,1-1.21V74c0-.75-.33-1.21-1-1.21S69.55,73.29,69.55,74Z" style="fill:#263238"></path><rect x="161.69" y="71.27" width="2.37" height="5.92" style="fill:#263238"></rect><rect x="164.85" y="70.08" width="2.37" height="7.11" style="fill:#263238"></rect><rect x="168.01" y="69.24" width="2.37" height="7.95" style="fill:#263238"></rect><rect x="171.17" y="67.78" width="2.37" height="9.42" style="fill:#263238"></rect><path d="M202.86,77H188.64V68.34h14.22Zm-13.43-.79h12.64V69.13H189.43Z" style="fill:#263238"></path><rect x="190.62" y="69.99" width="7.5" height="5.39" style="fill:#263238"></rect><rect x="202.37" y="71.66" width="1.79" height="2.05" style="fill:#263238"></rect><path d="M183.43,75.14a.52.52,0,0,1-.27-.07c-2.9-1.72-4.81-.13-4.89-.06a.53.53,0,1,1-.7-.8c.11-.09,2.55-2.18,6.13-.06a.54.54,0,0,1,.19.73A.53.53,0,0,1,183.43,75.14Z" style="fill:#263238"></path><path d="M184.5,73.36a.53.53,0,0,1-.27-.08c-4.19-2.49-7-.08-7-.06a.53.53,0,0,1-.75,0,.54.54,0,0,1,.05-.75s3.43-2.94,8.27-.06a.54.54,0,0,1,.19.73A.55.55,0,0,1,184.5,73.36Z" style="fill:#263238"></path><path d="M185.47,71.29a.52.52,0,0,1-.27-.07c-5.3-3.15-8.82-.19-9-.06a.53.53,0,1,1-.7-.8s4.23-3.62,10.21-.06a.54.54,0,0,1,.19.73A.53.53,0,0,1,185.47,71.29Z" style="fill:#263238"></path><path d="M181.83,76a1.33,1.33,0,1,1-1.33-1.33A1.33,1.33,0,0,1,181.83,76Z" style="fill:#263238"></path><line x1="176.26" y1="76.5" x2="184.93" y2="68.01" style="fill:none;stroke:#4DFF70;stroke-linecap:round;stroke-linejoin:round"></line><line x1="109.04" y1="236" x2="123" y2="236" style="fill:none;stroke:#263238;stroke-linecap:round;stroke-linejoin:round"></line><line x1="72.53" y1="236" x2="105.46" y2="236" style="fill:none;stroke:#263238;stroke-linecap:round;stroke-linejoin:round"></line><line x1="47" y1="236" x2="67.52" y2="236" style="fill:none;stroke:#263238;stroke-linecap:round;stroke-linejoin:round"></line><line x1="110.11" y1="245" x2="123" y2="245" style="fill:none;stroke:#263238;stroke-linecap:round;stroke-linejoin:round"></line><line x1="47" y1="245" x2="106.17" y2="245" style="fill:none;stroke:#263238;stroke-linecap:round;stroke-linejoin:round"></line><line x1="75.39" y1="254" x2="123" y2="254" style="fill:none;stroke:#263238;stroke-linecap:round;stroke-linejoin:round"></line><line x1="47" y1="254" x2="71.81" y2="254" style="fill:none;stroke:#263238;stroke-linecap:round;stroke-linejoin:round"></line><line x1="114.41" y1="263" x2="123" y2="263" style="fill:none;stroke:#263238;stroke-linecap:round;stroke-linejoin:round"></line><line x1="47" y1="263" x2="110.47" y2="263" style="fill:none;stroke:#263238;stroke-linecap:round;stroke-linejoin:round"></line><line x1="90.07" y1="272" x2="123" y2="272" style="fill:none;stroke:#263238;stroke-linecap:round;stroke-linejoin:round"></line><line x1="47" y1="272" x2="86.49" y2="272" style="fill:none;stroke:#263238;stroke-linecap:round;stroke-linejoin:round"></line><line x1="86.85" y1="281" x2="123" y2="281" style="fill:none;stroke:#263238;stroke-linecap:round;stroke-linejoin:round"></line><line x1="58.21" y1="281" x2="82.55" y2="281" style="fill:none;stroke:#263238;stroke-linecap:round;stroke-linejoin:round"></line><line x1="47" y1="281" x2="55.35" y2="281" style="fill:none;stroke:#263238;stroke-linecap:round;stroke-linejoin:round"></line><line x1="81.84" y1="290" x2="123" y2="290" style="fill:none;stroke:#263238;stroke-linecap:round;stroke-linejoin:round"></line><line x1="47" y1="290" x2="78.61" y2="290" style="fill:none;stroke:#263238;stroke-linecap:round;stroke-linejoin:round"></line><line x1="117.63" y1="299" x2="123" y2="299" style="fill:none;stroke:#263238;stroke-linecap:round;stroke-linejoin:round"></line><line x1="47" y1="299" x2="112.62" y2="299" style="fill:none;stroke:#263238;stroke-linecap:round;stroke-linejoin:round"></line><line x1="67.88" y1="308" x2="123" y2="308" style="fill:none;stroke:#263238;stroke-linecap:round;stroke-linejoin:round"></line><line x1="47" y1="308" x2="63.58" y2="308" style="fill:none;stroke:#263238;stroke-linecap:round;stroke-linejoin:round"></line><line x1="94.72" y1="317" x2="123" y2="317" style="fill:none;stroke:#263238;stroke-linecap:round;stroke-linejoin:round"></line><line x1="47" y1="317" x2="91.5" y2="317" style="fill:none;stroke:#263238;stroke-linecap:round;stroke-linejoin:round"></line><line x1="76.82" y1="326" x2="123" y2="326" style="fill:none;stroke:#263238;stroke-linecap:round;stroke-linejoin:round"></line><line x1="47" y1="326" x2="70.74" y2="326" style="fill:none;stroke:#263238;stroke-linecap:round;stroke-linejoin:round"></line><line x1="88.99" y1="335" x2="123" y2="335" style="fill:none;stroke:#263238;stroke-linecap:round;stroke-linejoin:round"></line><line x1="47" y1="335" x2="84.34" y2="335" style="fill:none;stroke:#263238;stroke-linecap:round;stroke-linejoin:round"></line><line x1="110.47" y1="344" x2="123" y2="344" style="fill:none;stroke:#263238;stroke-linecap:round;stroke-linejoin:round"></line><line x1="65.01" y1="344" x2="107.25" y2="344" style="fill:none;stroke:#263238;stroke-linecap:round;stroke-linejoin:round"></line><line x1="47" y1="344" x2="61.43" y2="344" style="fill:none;stroke:#263238;stroke-linecap:round;stroke-linejoin:round"></line><rect x="134.09" y="237.89" width="11.1" height="89.84" style="fill:#4DFF70;stroke:#263238;stroke-linecap:round;stroke-linejoin:round"></rect><rect x="151.99" y="273.68" width="11.1" height="54.05" style="fill:#263238;stroke:#263238;stroke-linecap:round;stroke-linejoin:round"></rect><rect x="169.88" y="290.86" width="11.1" height="36.87" style="fill:#4DFF70;stroke:#263238;stroke-linecap:round;stroke-linejoin:round"></rect><rect x="187.78" y="256.5" width="11.1" height="71.23" style="fill:#263238;stroke:#263238;stroke-linecap:round;stroke-linejoin:round"></rect><rect x="205.68" y="310.19" width="11.1" height="17.54" style="fill:#4DFF70;stroke:#263238;stroke-linecap:round;stroke-linejoin:round"></rect><line x1="134.5" y1="337" x2="215.5" y2="337" style="fill:none;stroke:#263238;stroke-linecap:round;stroke-linejoin:round"></line><line x1="134.5" y1="231.5" x2="215.5" y2="231.5" style="fill:none;stroke:#263238;stroke-linecap:round;stroke-linejoin:round"></line><line x1="134.5" y1="344" x2="215.5" y2="344" style="fill:none;stroke:#263238;stroke-linecap:round;stroke-linejoin:round"></line><line x1="47.03" y1="366.34" x2="214.42" y2="366.34" style="fill:none;stroke:#263238;stroke-linecap:round;stroke-linejoin:round"></line><line x1="57.12" y1="376.42" x2="95.71" y2="376.42" style="fill:none;stroke:#263238;stroke-linecap:round;stroke-linejoin:round"></line><line x1="57.12" y1="382.47" x2="82.66" y2="382.47" style="fill:none;stroke:#263238;stroke-linecap:round;stroke-linejoin:round"></line><line x1="57.12" y1="388.52" x2="95.71" y2="388.52" style="fill:none;stroke:#263238;stroke-linecap:round;stroke-linejoin:round"></line><line x1="57.12" y1="394.57" x2="79.97" y2="394.57" style="fill:none;stroke:#263238;stroke-linecap:round;stroke-linejoin:round"></line><line x1="112.78" y1="376.42" x2="135.77" y2="376.42" style="fill:none;stroke:#263238;stroke-linecap:round;stroke-linejoin:round"></line><line x1="112.78" y1="382.47" x2="151.37" y2="382.47" style="fill:none;stroke:#263238;stroke-linecap:round;stroke-linejoin:round"></line><line x1="112.78" y1="388.52" x2="140.47" y2="388.52" style="fill:none;stroke:#263238;stroke-linecap:round;stroke-linejoin:round"></line><line x1="112.78" y1="394.57" x2="151.37" y2="394.57" style="fill:none;stroke:#263238;stroke-linecap:round;stroke-linejoin:round"></line><line x1="168.43" y1="376.42" x2="207.02" y2="376.42" style="fill:none;stroke:#263238;stroke-linecap:round;stroke-linejoin:round"></line><line x1="168.43" y1="382.47" x2="187.53" y2="382.47" style="fill:none;stroke:#263238;stroke-linecap:round;stroke-linejoin:round"></line><line x1="168.43" y1="388.52" x2="207.02" y2="388.52" style="fill:none;stroke:#263238;stroke-linecap:round;stroke-linejoin:round"></line><line x1="168.43" y1="394.57" x2="196.27" y2="394.57" style="fill:none;stroke:#263238;stroke-linecap:round;stroke-linejoin:round"></line></g><g id="freepik--icon-3--inject-4"><circle cx="254.75" cy="275.48" r="37" transform="translate(-120.18 260.82) rotate(-45)" style="fill:#fff;stroke:#4DFF70;stroke-linecap:round;stroke-linejoin:round;stroke-width:6px"></circle><path d="M216.29,229.1h44.16A3.85,3.85,0,0,1,264.3,233v28.48a0,0,0,0,1,0,0H212.44a0,0,0,0,1,0,0V233A3.85,3.85,0,0,1,216.29,229.1Z" style="fill:#263238;stroke:#263238;stroke-linecap:round;stroke-linejoin:round"></path><path d="M219.91,231.36h36.92a3.85,3.85,0,0,1,3.85,3.85v27.46a0,0,0,0,1,0,0H216.06a0,0,0,0,1,0,0V235.21A3.85,3.85,0,0,1,219.91,231.36Z" style="fill:#fff;stroke:#263238;stroke-linecap:round;stroke-linejoin:round"></path><path d="M266.48,260.83H210.57c-.68,0,1.38,5.49,4.05,5.49h45.81C263.1,266.32,267.16,260.83,266.48,260.83Z" style="fill:#263238;stroke:#263238;stroke-linecap:round;stroke-linejoin:round"></path><rect x="272.72" y="234.82" width="17.33" height="31.33" rx="3" style="fill:#263238;stroke:#263238;stroke-linecap:round;stroke-linejoin:round"></rect><rect x="275.11" y="239.15" width="12.54" height="22.67" style="fill:#fff;stroke:#263238;stroke-linecap:round;stroke-linejoin:round"></rect><line x1="251.09" y1="282.12" x2="240.11" y2="270.82" style="fill:none;stroke:#263238;stroke-linecap:round;stroke-linejoin:round"></line><polyline points="240.17 278.56 240.11 270.82 246.65 270.87" style="fill:none;stroke:#263238;stroke-linecap:round;stroke-linejoin:round"></polyline><line x1="258.32" y1="282.12" x2="268.72" y2="271.09" style="fill:none;stroke:#263238;stroke-linecap:round;stroke-linejoin:round"></line><polyline points="269.38 278.56 269.3 270.82 261.2 270.87" style="fill:none;stroke:#263238;stroke-linecap:round;stroke-linejoin:round"></polyline><line x1="251.09" y1="286.08" x2="240.11" y2="297.39" style="fill:none;stroke:#263238;stroke-linecap:round;stroke-linejoin:round"></line><polyline points="240.17 289.64 240.11 297.39 246.65 297.33" style="fill:none;stroke:#263238;stroke-linecap:round;stroke-linejoin:round"></polyline><line x1="258.32" y1="286.08" x2="268.72" y2="297.11" style="fill:none;stroke:#263238;stroke-linecap:round;stroke-linejoin:round"></line><polyline points="269.38 289.64 269.3 297.39 261.2 297.33" style="fill:none;stroke:#263238;stroke-linecap:round;stroke-linejoin:round"></polyline></g><g id="freepik--icon-2--inject-4"><circle cx="281.28" cy="168.09" r="37" transform="translate(-36.47 248.13) rotate(-45)" style="fill:#fff;stroke:#4DFF70;stroke-linecap:round;stroke-linejoin:round;stroke-width:6px"></circle><path d="M291.82,164.08l-8.16,1.31a3.6,3.6,0,1,0,1.24,2.7.43.43,0,0,1,0-.05Z" style="fill:#263238;stroke:#263238;stroke-linecap:round;stroke-linejoin:round"></path><line x1="281.19" y1="144.16" x2="281.19" y2="150.89" style="fill:none;stroke:#263238;stroke-linecap:round;stroke-linejoin:round"></line><line x1="267.14" y1="148.79" x2="271.1" y2="154.23" style="fill:none;stroke:#263238;stroke-linecap:round;stroke-linejoin:round"></line><line x1="258.5" y1="160.78" x2="264.89" y2="162.86" style="fill:none;stroke:#263238;stroke-linecap:round;stroke-linejoin:round"></line><line x1="258.55" y1="175.57" x2="264.94" y2="173.5" style="fill:none;stroke:#263238;stroke-linecap:round;stroke-linejoin:round"></line><line x1="267.29" y1="187.51" x2="271.24" y2="182.07" style="fill:none;stroke:#263238;stroke-linecap:round;stroke-linejoin:round"></line><line x1="281.37" y1="192.02" x2="281.37" y2="185.3" style="fill:none;stroke:#263238;stroke-linecap:round;stroke-linejoin:round"></line><line x1="295.42" y1="187.4" x2="291.47" y2="181.96" style="fill:none;stroke:#263238;stroke-linecap:round;stroke-linejoin:round"></line><line x1="304.07" y1="175.4" x2="297.67" y2="173.33" style="fill:none;stroke:#263238;stroke-linecap:round;stroke-linejoin:round"></line><line x1="304.01" y1="160.61" x2="297.62" y2="162.69" style="fill:none;stroke:#263238;stroke-linecap:round;stroke-linejoin:round"></line><line x1="295.27" y1="148.68" x2="291.32" y2="154.12" style="fill:none;stroke:#263238;stroke-linecap:round;stroke-linejoin:round"></line><path d="M281.28,141a27.13,27.13,0,1,0,27.13,27.12A27.12,27.12,0,0,0,281.28,141Zm0,50a22.85,22.85,0,1,1,22.84-22.85A22.85,22.85,0,0,1,281.28,190.94Z" style="fill:#263238;stroke:#263238;stroke-linecap:round;stroke-linejoin:round"></path><path d="M305.18,160.65a25,25,0,1,0-24.26,32.47" style="fill:none;stroke:#4DFF70;stroke-linecap:round;stroke-linejoin:round;stroke-width:2px"></path></g><g id="freepik--Character--inject-4"><path d="M350.88,372.07s2.6,27.78,4.63,37.91,9.55,46.58,9.55,50-8.68,10.71-12.44,12.74.86,3.76,4.63,3.47,9.83-2.32,10.7-3.18a13.85,13.85,0,0,1,2.7-1.78l.49-.25-.29,2,4.34-.87a55.48,55.48,0,0,0,0-10.13c-.58-3.76-.87-6.94-.87-6.94s.87-57.88.87-62.79V381Z" style="fill:#bdbdbd;stroke:#263238;stroke-linecap:round;stroke-linejoin:round"></path><path d="M357.25,476.24c3.76-.29,9.83-2.32,10.7-3.18a13.85,13.85,0,0,1,2.7-1.78l.49-.25-.29,2,4.34-.87a55.48,55.48,0,0,0,0-10.13c-3.19,3.76-11.58,8.1-13.89,8.39a4.26,4.26,0,0,1-3.48-.87l-.46-.12a34.85,34.85,0,0,1-4.74,3.31C348.85,474.79,353.48,476.53,357.25,476.24Z" style="fill:#263238;stroke:#263238;stroke-linecap:round;stroke-linejoin:round"></path><path d="M382.42,380.46s.87,29.81,3.47,37.91,4.63,41.09,4.63,41.09a117.67,117.67,0,0,1-3.76,11.28c-2.52,5.88-.87,10.71,2.6,10.42s8.11-6.66,8.4-11.58a103.65,103.65,0,0,1,1.44-11s4.63-31.54,5.79-42.25-.58-23.73-.58-24.88,1.45-14.76,1.45-14.76L382.13,379Z" style="fill:#bdbdbd;stroke:#263238;stroke-linecap:round;stroke-linejoin:round"></path><path d="M398.06,466.21c-1.84,2.92-4.65,6.56-7.25,6.56-2.32,0-3-2.31-3.1-4.47-.31.88-.64,1.71-.95,2.44-2.52,5.88-.87,10.71,2.6,10.42s8.11-6.66,8.4-11.58C397.82,468.49,397.93,467.34,398.06,466.21Z" style="fill:#263238;stroke:#263238;stroke-linecap:round;stroke-linejoin:round"></path><path d="M352,279.42A110.7,110.7,0,0,0,340.4,311c-3.68,18.24,7.88,62.85,7.88,62.85s10.12,9.55,28.93,10.41,28.94-2.6,28.94-2.6,10.73-46.61,9.33-67.11a62.35,62.35,0,0,0-14-34.42L354,276.39Z" style="fill:#263238;stroke:#263238;stroke-linecap:round;stroke-linejoin:round"></path><path d="M340.73,296.59S339.39,306.4,340,308s10.51,7.1,30.1,10.82,37.95-5.91,42.35-7.68,4.85-4.91,4.81-5.89-1.25-6.87-1.25-6.87-21.47,5.12-35.27,5.13-36.06-9.25-38.23-10S340.73,296.59,340.73,296.59Z" style="fill:#fff;stroke:#263238;stroke-linecap:round;stroke-linejoin:round"></path><path d="M369.88,204.41s-19.14,7.07-23.92,9-8.66,2.16-10.76,7.85S321.79,263.68,322.4,269s5.87,10.4,13.06,10.2a10.35,10.35,0,0,0,10-7.07c.7-1.77,2.12-5.1,2.12-5.1s-7.84,19.77-8.82,24.48.3,7.06,5.45,9.41,20.72,9.65,30.69,11,30.75-6.11,37-9.25,5.29-3.73,4.07-9.61-8.4-12.74-7.47-18.63,3.85-24.33,4.56-26.1,8.13-19.62,8.73-23.94a12.78,12.78,0,0,0-3.15-10.2c-2-2.35-11.29-5.09-17.19-6.85s-9.65-2.94-9.65-2.94Z" style="fill:#fff;stroke:#263238;stroke-linecap:round;stroke-linejoin:round"></path><path d="M329.41,255.18a19.33,19.33,0,0,0-2.52.26" style="fill:none;stroke:#263238;stroke-linecap:round;stroke-linejoin:round"></path><path d="M338.64,262.11s-.17-4.12-3.35-5.89a8.15,8.15,0,0,0-2.45-.83" style="fill:none;stroke:#263238;stroke-linecap:round;stroke-linejoin:round"></path><path d="M338.45,254.81a28.45,28.45,0,0,1,3.23,5.53" style="fill:none;stroke:#263238;stroke-linecap:round;stroke-linejoin:round"></path><path d="M333.88,250.34a14.16,14.16,0,0,1,2.42,2" style="fill:none;stroke:#263238;stroke-linecap:round;stroke-linejoin:round"></path><path d="M400.12,283.78a28.66,28.66,0,0,1-1.19,2.62" style="fill:none;stroke:#263238;stroke-linecap:round;stroke-linejoin:round"></path><path d="M411.59,254.73s-4.38,10.87-8.06,20.49c-.81,2.1-1.48,3.81-2,5.21" style="fill:none;stroke:#263238;stroke-linecap:round;stroke-linejoin:round"></path><path d="M404.27,279.14s-5.37,11.19-5.28,13.35" style="fill:none;stroke:#263238;stroke-linecap:round;stroke-linejoin:round"></path><path d="M344.06,299.18s9.77,5.21,12.94,6.59" style="fill:#fff;stroke:#263238;stroke-linecap:round;stroke-linejoin:round"></path><path d="M371.84,193.05s-3,.07-2.58,1.63a45.18,45.18,0,0,1,.2,8.79c-.2,1.17-3.52,1.75,1.56,4.88s11.72,3.71,17.19,2.54,8.2-1.56,8.78-4.1-.19-3.13-.19-5.67,1.17-6.05.58-7.61-7-2.54-8.78-2.54-15.24.39-15.24.39Z" style="fill:#fff;stroke:#263238;stroke-linecap:round;stroke-linejoin:round"></path><path d="M366.92,172.42s-3.91-4.3-4.69,1,4.69,9,4.69,9Z" style="fill:#bdbdbd;stroke:#263238;stroke-linecap:round;stroke-linejoin:round"></path><path d="M399.34,172s3.51-3.51,4.49.2-4.1,10.16-4.1,9.57S399.34,172,399.34,172Z" style="fill:#bdbdbd;stroke:#263238;stroke-linecap:round;stroke-linejoin:round"></path><path d="M366.22,165.81s.56,8.73.56,15.2,2.53,10.42,5.06,13.79,6.48,8.73,10.42,8.73,8.16-5.91,10.69-8.44,6.76-8.17,6.76-11.54V167.78a13.8,13.8,0,0,0-1.41-9.85c-2.81-5.06-14.07-6.75-22.51-4.78S365.37,163,366.22,165.81Z" style="fill:#bdbdbd;stroke:#263238;stroke-linecap:round;stroke-linejoin:round"></path><path d="M366.92,172.42s1-1,1.17-3.72.39-7.22,4.88-10.35,9-3.71,15.24-1.75,7.61,5.66,8.78,9.57-.19,6.83,2.35,5.85,3.71-6.05,4.49-11.91S399.34,147,389.18,143.9s-21.28,2.35-23.82,9-2,11.52-1,13.28S364.38,172.81,366.92,172.42Z" style="fill:#263238;stroke:#263238;stroke-linecap:round;stroke-linejoin:round"></path><path d="M376.49,179.25c0,.86-.53,1.56-1.17,1.56a1.62,1.62,0,0,1,0-3.12C376,177.69,376.49,178.39,376.49,179.25Z" style="fill:#263238"></path><path d="M389,179.45a1.41,1.41,0,0,1-1.18,1.56c-.64,0-1.17-.7-1.17-1.56s.53-1.57,1.17-1.57S389,178.58,389,179.45Z" style="fill:#263238"></path><path d="M378.64,187.06s1.95,2,6.83.39" style="fill:none;stroke:#263238;stroke-linecap:round;stroke-linejoin:round"></path><path d="M375.51,189.21a7.17,7.17,0,0,0,6.45,3.71,9.91,9.91,0,0,0,7.42-3.71" style="fill:none;stroke:#263238;stroke-linecap:round;stroke-linejoin:round"></path><path d="M371.22,174.76a7.22,7.22,0,0,1,7.22-.39" style="fill:none;stroke:#263238;stroke-linecap:round;stroke-linejoin:round"></path><path d="M385.67,174.56s4.1-1.75,7.22.78" style="fill:none;stroke:#263238;stroke-linecap:round;stroke-linejoin:round"></path><path d="M417.22,245.69s-3.9,2.93-3.9,5.27,0,21.09,4.88,26.17,11.72,2.93,15.82,1.17,5.86-7.22,4.29-11.32-3.12-15-5.27-18.75S424.45,243.54,417.22,245.69Z" style="fill:#fff;stroke:#263238;stroke-linecap:round;stroke-linejoin:round"></path><path d="M420,238.85s-4.5,1.18-3.91,3.32-1.56,6.25.59,8.6,10,1.56,12.89-.2.78-4.69.78-6.83,1-5.08-1.18-6.25S420,238.85,420,238.85Z" style="fill:#fff;stroke:#263238;stroke-linecap:round;stroke-linejoin:round"></path><path d="M427.63,213.72s-2.11-1.23-3.33-1.05-7.55,4.21-8.42,5.26,1.57,3.16,2.8,3.16a16.1,16.1,0,0,0,4.91-1.58c.53-.35,5.27-3.69,5.27-3.69Z" style="fill:#bdbdbd;stroke:#263238;stroke-linecap:round;stroke-linejoin:round"></path><path d="M420.09,239.68s-3-1.93-3-5.09a35.21,35.21,0,0,1,.18-4.38s-2.28-.7-2.11-2.63a4.75,4.75,0,0,1,1.41-3,21.43,21.43,0,0,1,1.75-2.8l1.41-1.41s.87-4,3.15-4.38l2.28-.35s1.23-3,2.64-3,4.91,4,6,6.31.18,3.51-2.11,6.67-3.15,10.17-3.15,11.75.35,4.56-2.63,5.44-5.79.7-6.32-.35S420.09,239.68,420.09,239.68Z" style="fill:#bdbdbd;stroke:#263238;stroke-linecap:round;stroke-linejoin:round"></path><line x1="425.17" y1="215.65" x2="430.61" y2="221.79" style="fill:none;stroke:#263238;stroke-linecap:round;stroke-linejoin:round"></line><line x1="419.74" y1="220.38" x2="425.35" y2="225.12" style="fill:none;stroke:#263238;stroke-linecap:round;stroke-linejoin:round"></line><line x1="416.58" y1="224.59" x2="420.96" y2="227.58" style="fill:none;stroke:#263238;stroke-linecap:round;stroke-linejoin:round"></line><path d="M339.11,262.29a8.21,8.21,0,0,0-5.08-2.15c-3.52-.39-7.42,2.73-10.16,5.47s-4.1,10.54-1.36,14.84S332.66,285.33,336,284a39.84,39.84,0,0,0,9.77-6.06c2.14-2,1-5.47-.59-7.81S339.11,262.29,339.11,262.29Z" style="fill:#fff;stroke:#263238;stroke-linecap:round;stroke-linejoin:round"></path><path d="M349.26,261.31s-1-2.15-2.34-2.15-6.64,2-7.81,2.35-4.5,7.42-1.37,11.32a6.26,6.26,0,0,0,9,1.18c1.37-1.37,5.67-3.32,5.67-5.67S349.26,261.31,349.26,261.31Z" style="fill:#fff;stroke:#263238;stroke-linecap:round;stroke-linejoin:round"></path><path d="M362.35,250.57l-.87-17.81a2.11,2.11,0,0,1,2.19-2.21l14.25.6a2.1,2.1,0,0,1,2,2.09l.18,30.22a2,2,0,0,1-1.95,2l-12.37.14A2.78,2.78,0,0,1,363,263Z" style="fill:#4DFF70;stroke:#263238;stroke-linecap:round;stroke-linejoin:round"></path><path d="M352.78,254.48a9.1,9.1,0,0,1-2.93,4.29c-2.35,2-4.1,1.76-4.5,3.91a5.39,5.39,0,0,0,4.11,6.44c3.71.78,8.39-1.56,10-1.56s5.85.78,8.59.59,6.64-3.13,6.25-3.71-2.15-.78-2.15-.78,5.47-3.52,6.64-4.3,1.37-2.15-.78-1.56-6.45,2.93-7.23,2.93-5.27.19-5.27.19,7.81-4.1,9.37-5.08,4.3-3.32,4.3-4.49-2.15-1-2.93-.58-9.37,4.1-10.54,4.49,9.37-7,10.35-8a1.32,1.32,0,0,0-1-2.34c-1.37,0-10.35,5.86-10.35,5.86l-2.34-.2-.2-5.86s-6.44,3.71-7.81,5.86A10.08,10.08,0,0,0,352.78,254.48Z" style="fill:#bdbdbd;stroke:#263238;stroke-linecap:round;stroke-linejoin:round"></path><path d="M372.11,263.66a4.28,4.28,0,0,1-2.54,1.17,31.15,31.15,0,0,1-4.88.39" style="fill:#fff;stroke:#263238;stroke-linecap:round;stroke-linejoin:round"></path><line x1="365.67" y1="255.26" x2="363.32" y2="256.04" style="fill:#fff;stroke:#263238;stroke-linecap:round;stroke-linejoin:round"></line></g></svg>